<svg version="1.1"
baseProfile="full"
width="100%" height="100%"
xmlns="http://www.w3.org/2000/svg">
<rect width="500" height="500" fill="white" />
<circle cx="250" cy="250" r="30" stroke="black" stroke-width=".5" fill="none" />
<circle cx="250" cy="250" r="39" stroke="black" stroke-width=".5" fill="none" />
<circle cx="250" cy="250" r="3" stroke="black" stroke-width=".5" fill="none" />
<circle cx="250" cy="250" r="6" stroke="black" stroke-width=".5" fill="none" />
<circle cx="250" cy="250" r="12" stroke="black" stroke-width=".5" fill="none" />
<circle cx="250" cy="250" r="21" stroke="black" stroke-width=".5" fill="none" />
<circle cx="250" cy="250" r="12" stroke="black" stroke-width=".5" fill="none" />
<circle cx="250" cy="250" r="3" stroke="black" stroke-width=".5" fill="none" />
<circle cx="250" cy="250" r="54" stroke="black" stroke-width=".5" fill="none" />
<circle cx="250" cy="250" r="6" stroke="black" stroke-width=".5" fill="none" />
<circle cx="250" cy="250" r="9" stroke="black" stroke-width=".5" fill="none" />
<circle cx="250" cy="250" r="21" stroke="black" stroke-width=".5" fill="none" />
<circle cx="250" cy="250" r="9" stroke="black" stroke-width=".5" fill="none" />
<circle cx="250" cy="250" r="6" stroke="black" stroke-width=".5" fill="none" />
<circle cx="250" cy="250" r="3" stroke="black" stroke-width=".5" fill="none" />
<circle cx="250" cy="250" r="36" stroke="black" stroke-width=".5" fill="none" />
<circle cx="250" cy="250" r="27" stroke="black" stroke-width=".5" fill="none" />
<circle cx="250" cy="250" r="6" stroke="black" stroke-width=".5" fill="none" />
<circle cx="250" cy="250" r="9" stroke="black" stroke-width=".5" fill="none" />
<circle cx="250" cy="250" r="12" stroke="black" stroke-width=".5" fill="none" />
<circle cx="250" cy="250" r="18" stroke="black" stroke-width=".5" fill="none" />
<circle cx="250" cy="250" r="12" stroke="black" stroke-width=".5" fill="none" />
<circle cx="250" cy="250" r="87" stroke="black" stroke-width=".5" fill="none" />
<circle cx="250" cy="250" r="30" stroke="black" stroke-width=".5" fill="none" />
<circle cx="250" cy="250" r="9" stroke="black" stroke-width=".5" fill="none" />
<circle cx="250" cy="250" r="9" stroke="black" stroke-width=".5" fill="none" />
<circle cx="250" cy="250" r="78" stroke="black" stroke-width=".5" fill="none" />
<circle cx="250" cy="250" r="3" stroke="black" stroke-width=".5" fill="none" />
<circle cx="250" cy="250" r="84" stroke="black" stroke-width=".5" fill="none" />
<circle cx="250" cy="250" r="15" stroke="black" stroke-width=".5" fill="none" />
<circle cx="250" cy="250" r="15" stroke="black" stroke-width=".5" fill="none" />
<circle cx="250" cy="250" r="6" stroke="black" stroke-width=".5" fill="none" />
<circle cx="250" cy="250" r="39" stroke="black" stroke-width=".5" fill="none" />
<circle cx="250" cy="250" r="18" stroke="black" stroke-width=".5" fill="none" />
<circle cx="250" cy="250" r="21" stroke="black" stroke-width=".5" fill="none" />
<circle cx="250" cy="250" r="6" stroke="black" stroke-width=".5" fill="none" />
<circle cx="250" cy="250" r="12" stroke="black" stroke-width=".5" fill="none" />
<circle cx="250" cy="250" r="9" stroke="black" stroke-width=".5" fill="none" />
<circle cx="250" cy="250" r="24" stroke="black" stroke-width=".5" fill="none" />
<circle cx="250" cy="250" r="6" stroke="black" stroke-width=".5" fill="none" />
<circle cx="250" cy="250" r="9" stroke="black" stroke-width=".5" fill="none" />
<circle cx="250" cy="250" r="27" stroke="black" stroke-width=".5" fill="none" />
<circle cx="250" cy="250" r="21" stroke="black" stroke-width=".5" fill="none" />
<circle cx="250" cy="250" r="36" stroke="black" stroke-width=".5" fill="none" />
<circle cx="250" cy="250" r="9" stroke="black" stroke-width=".5" fill="none" />
<circle cx="250" cy="250" r="3" stroke="black" stroke-width=".5" fill="none" />
<circle cx="250" cy="250" r="3" stroke="black" stroke-width=".5" fill="none" />
<circle cx="250" cy="250" r="15" stroke="black" stroke-width=".5" fill="none" />
<circle cx="250" cy="250" r="21" stroke="black" stroke-width=".5" fill="none" />
<circle cx="250" cy="250" r="36" stroke="black" stroke-width=".5" fill="none" />
<circle cx="250" cy="250" r="36" stroke="black" stroke-width=".5" fill="none" />
<circle cx="250" cy="250" r="9" stroke="black" stroke-width=".5" fill="none" />
<circle cx="250" cy="250" r="6" stroke="black" stroke-width=".5" fill="none" />
<circle cx="250" cy="250" r="36" stroke="black" stroke-width=".5" fill="none" />
<circle cx="250" cy="250" r="3" stroke="black" stroke-width=".5" fill="none" />
<circle cx="250" cy="250" r="6" stroke="black" stroke-width=".5" fill="none" />
<circle cx="250" cy="250" r="21" stroke="black" stroke-width=".5" fill="none" />
<circle cx="250" cy="250" r="36" stroke="black" stroke-width=".5" fill="none" />
<circle cx="250" cy="250" r="6" stroke="black" stroke-width=".5" fill="none" />
<circle cx="250" cy="250" r="18" stroke="black" stroke-width=".5" fill="none" />
<circle cx="250" cy="250" r="3" stroke="black" stroke-width=".5" fill="none" />
<circle cx="250" cy="250" r="3" stroke="black" stroke-width=".5" fill="none" />
<circle cx="250" cy="250" r="18" stroke="black" stroke-width=".5" fill="none" />
<circle cx="250" cy="250" r="9" stroke="black" stroke-width=".5" fill="none" />
<circle cx="250" cy="250" r="18" stroke="black" stroke-width=".5" fill="none" />
<circle cx="250" cy="250" r="21" stroke="black" stroke-width=".5" fill="none" />
<circle cx="250" cy="250" r="33" stroke="black" stroke-width=".5" fill="none" />
<circle cx="250" cy="250" r="18" stroke="black" stroke-width=".5" fill="none" />
<circle cx="250" cy="250" r="15" stroke="black" stroke-width=".5" fill="none" />
<circle cx="250" cy="250" r="3" stroke="black" stroke-width=".5" fill="none" />
<circle cx="250" cy="250" r="21" stroke="black" stroke-width=".5" fill="none" />
<circle cx="250" cy="250" r="9" stroke="black" stroke-width=".5" fill="none" />
<circle cx="250" cy="250" r="15" stroke="black" stroke-width=".5" fill="none" />
<circle cx="250" cy="250" r="42" stroke="black" stroke-width=".5" fill="none" />
<circle cx="250" cy="250" r="36" stroke="black" stroke-width=".5" fill="none" />
<circle cx="250" cy="250" r="15" stroke="black" stroke-width=".5" fill="none" />
<circle cx="250" cy="250" r="36" stroke="black" stroke-width=".5" fill="none" />
<circle cx="250" cy="250" r="78" stroke="black" stroke-width=".5" fill="none" />
<circle cx="250" cy="250" r="42" stroke="black" stroke-width=".5" fill="none" />
<circle cx="250" cy="250" r="12" stroke="black" stroke-width=".5" fill="none" />
<circle cx="250" cy="250" r="141" stroke="black" stroke-width=".5" fill="none" />
<circle cx="250" cy="250" r="51" stroke="black" stroke-width=".5" fill="none" />
<circle cx="250" cy="250" r="24" stroke="black" stroke-width=".5" fill="none" />
<circle cx="250" cy="250" r="42" stroke="black" stroke-width=".5" fill="none" />
<circle cx="250" cy="250" r="33" stroke="black" stroke-width=".5" fill="none" />
<circle cx="250" cy="250" r="81" stroke="black" stroke-width=".5" fill="none" />
<circle cx="250" cy="250" r="3" stroke="black" stroke-width=".5" fill="none" />
<circle cx="250" cy="250" r="21" stroke="black" stroke-width=".5" fill="none" />
<circle cx="250" cy="250" r="24" stroke="black" stroke-width=".5" fill="none" />
<circle cx="250" cy="250" r="3" stroke="black" stroke-width=".5" fill="none" />
<circle cx="250" cy="250" r="18" stroke="black" stroke-width=".5" fill="none" />
<circle cx="250" cy="250" r="33" stroke="black" stroke-width=".5" fill="none" />
<circle cx="250" cy="250" r="3" stroke="black" stroke-width=".5" fill="none" />
<circle cx="250" cy="250" r="30" stroke="black" stroke-width=".5" fill="none" />
<circle cx="250" cy="250" r="18" stroke="black" stroke-width=".5" fill="none" />
<circle cx="250" cy="250" r="6" stroke="black" stroke-width=".5" fill="none" />
<circle cx="250" cy="250" r="48" stroke="black" stroke-width=".5" fill="none" />
<circle cx="250" cy="250" r="15" stroke="black" stroke-width=".5" fill="none" />
<circle cx="250" cy="250" r="9" stroke="black" stroke-width=".5" fill="none" />
<circle cx="250" cy="250" r="57" stroke="black" stroke-width=".5" fill="none" />
<circle cx="250" cy="250" r="9" stroke="black" stroke-width=".5" fill="none" />
<circle cx="250" cy="250" r="30" stroke="black" stroke-width=".5" fill="none" />
<circle cx="250" cy="250" r="27" stroke="black" stroke-width=".5" fill="none" />
<circle cx="250" cy="250" r="33" stroke="black" stroke-width=".5" fill="none" />
<circle cx="250" cy="250" r="9" stroke="black" stroke-width=".5" fill="none" />
<circle cx="250" cy="250" r="24" stroke="black" stroke-width=".5" fill="none" />
<circle cx="250" cy="250" r="54" stroke="black" stroke-width=".5" fill="none" />
<circle cx="250" cy="250" r="66" stroke="black" stroke-width=".5" fill="none" />
<circle cx="250" cy="250" r="21" stroke="black" stroke-width=".5" fill="none" />
<circle cx="250" cy="250" r="6" stroke="black" stroke-width=".5" fill="none" />
<circle cx="250" cy="250" r="54" stroke="black" stroke-width=".5" fill="none" />
<circle cx="250" cy="250" r="3" stroke="black" stroke-width=".5" fill="none" />
<circle cx="250" cy="250" r="9" stroke="black" stroke-width=".5" fill="none" />
<circle cx="250" cy="250" r="102" stroke="black" stroke-width=".5" fill="none" />
<circle cx="250" cy="250" r="30" stroke="black" stroke-width=".5" fill="none" />
<circle cx="250" cy="250" r="21" stroke="black" stroke-width=".5" fill="none" />
<circle cx="250" cy="250" r="12" stroke="black" stroke-width=".5" fill="none" />
<circle cx="250" cy="250" r="33" stroke="black" stroke-width=".5" fill="none" />
<circle cx="250" cy="250" r="15" stroke="black" stroke-width=".5" fill="none" />
<circle cx="250" cy="250" r="45" stroke="black" stroke-width=".5" fill="none" />
<circle cx="250" cy="250" r="57" stroke="black" stroke-width=".5" fill="none" />
<circle cx="250" cy="250" r="3" stroke="black" stroke-width=".5" fill="none" />
<circle cx="250" cy="250" r="3" stroke="black" stroke-width=".5" fill="none" />
<circle cx="250" cy="250" r="39" stroke="black" stroke-width=".5" fill="none" />
<circle cx="250" cy="250" r="6" stroke="black" stroke-width=".5" fill="none" />
</svg>